# xmcd
#
# Track frame offsets: 
#        150
#        6374
#        16132
#        27125
#        94501
#        107451
#        123005
#        141756
#        158647
#        175194
#        191736
#        217845
#        257786
#        277763
#        298201
#        316310
#
# Disc length: 4530 seconds
#
# Revision: 0
# Processed by: cddbd v1.5.2PL0 Copyright (c) Steve Scherf et al.
# Submitted via: ExactAudioCopy v0.95b3
#
DISCID=cc11b010
DTITLE=Jimi Hendrix  - Electric Ladyland and Beyond CD 1  FLAC
DYEAR=1900
DGENRE=
TTITLE0=And The Gods Made Love
TTITLE1=Have You Ever Been (To Electric Ladyland)
TTITLE2=Crosstown Traffic
TTITLE3=Voodoo Chile
TTITLE4=Little Miss Strange
TTITLE5=Long Hot Summer Night
TTITLE6=Come On (Part 1)
TTITLE7=Gypsy Eyes
TTITLE8=Burning Of The Midnight Lamp
TTITLE9=Rainy Day. Dream Away
TTITLE10=1983 ... (A Merman I Should Turn To Be)
TTITLE11=Moon. Turn The Tides.... gently gently away
TTITLE12=Still Raining. Still Dreaming
TTITLE13=House Burning Down
TTITLE14=All Along The Watchtower
TTITLE15=Voodoo Child (Slight Return)
EXTD=
EXTT0=
EXTT1=
EXTT2=
EXTT3=
EXTT4=
EXTT5=
EXTT6=
EXTT7=
EXTT8=
EXTT9=
EXTT10=
EXTT11=
EXTT12=
EXTT13=
EXTT14=
EXTT15=
PLAYORDER=
